<mxfile host="app.diagrams.net" modified="2024-02-25T11:23:28.620Z" agent="Mozilla/5.0 (X11; Ubuntu; Linux x86_64; rv:123.0) Gecko/20100101 Firefox/123.0" etag="hJrW5EUNZKjywBP-vh6R" version="23.1.6" type="device">
  <diagram name="Page-1" id="DH0VSUAS_0w_N3MlrScq">
    <mxGraphModel dx="1134" dy="1136" grid="1" gridSize="10" guides="1" tooltips="1" connect="1" arrows="1" fold="1" page="1" pageScale="1" pageWidth="850" pageHeight="1100" math="0" shadow="0">
      <root>
        <mxCell id="0" />
        <mxCell id="1" parent="0" />
        <mxCell id="PgKA3caZ3Ft2EnKoRNSa-3" value="" style="edgeStyle=orthogonalEdgeStyle;rounded=0;orthogonalLoop=1;jettySize=auto;html=1;" edge="1" parent="1" source="PgKA3caZ3Ft2EnKoRNSa-1" target="PgKA3caZ3Ft2EnKoRNSa-2">
          <mxGeometry relative="1" as="geometry" />
        </mxCell>
        <mxCell id="PgKA3caZ3Ft2EnKoRNSa-1" value="Source" style="rounded=0;whiteSpace=wrap;html=1;fontSize=24;fontFamily=Courier New;" vertex="1" parent="1">
          <mxGeometry x="280" y="360" width="120" height="40" as="geometry" />
        </mxCell>
        <mxCell id="PgKA3caZ3Ft2EnKoRNSa-9" value="" style="edgeStyle=orthogonalEdgeStyle;rounded=0;orthogonalLoop=1;jettySize=auto;html=1;" edge="1" parent="1" source="PgKA3caZ3Ft2EnKoRNSa-2" target="PgKA3caZ3Ft2EnKoRNSa-4">
          <mxGeometry relative="1" as="geometry" />
        </mxCell>
        <mxCell id="PgKA3caZ3Ft2EnKoRNSa-2" value="Front" style="rounded=0;whiteSpace=wrap;html=1;fontSize=24;fontFamily=Courier New;labelBackgroundColor=none;fillColor=#deddda;" vertex="1" parent="1">
          <mxGeometry x="440" y="360" width="120" height="40" as="geometry" />
        </mxCell>
        <mxCell id="PgKA3caZ3Ft2EnKoRNSa-10" value="" style="edgeStyle=orthogonalEdgeStyle;rounded=0;orthogonalLoop=1;jettySize=auto;html=1;" edge="1" parent="1" source="PgKA3caZ3Ft2EnKoRNSa-4" target="PgKA3caZ3Ft2EnKoRNSa-5">
          <mxGeometry relative="1" as="geometry" />
        </mxCell>
        <mxCell id="PgKA3caZ3Ft2EnKoRNSa-4" value="IR" style="rounded=0;whiteSpace=wrap;html=1;fontSize=24;fontFamily=Courier New;" vertex="1" parent="1">
          <mxGeometry x="600" y="360" width="40" height="40" as="geometry" />
        </mxCell>
        <mxCell id="PgKA3caZ3Ft2EnKoRNSa-11" value="" style="edgeStyle=orthogonalEdgeStyle;rounded=0;orthogonalLoop=1;jettySize=auto;html=1;" edge="1" parent="1" source="PgKA3caZ3Ft2EnKoRNSa-5" target="PgKA3caZ3Ft2EnKoRNSa-6">
          <mxGeometry relative="1" as="geometry" />
        </mxCell>
        <mxCell id="PgKA3caZ3Ft2EnKoRNSa-16" value="" style="edgeStyle=orthogonalEdgeStyle;rounded=0;orthogonalLoop=1;jettySize=auto;html=1;" edge="1" parent="1" source="PgKA3caZ3Ft2EnKoRNSa-5" target="PgKA3caZ3Ft2EnKoRNSa-14">
          <mxGeometry relative="1" as="geometry" />
        </mxCell>
        <mxCell id="PgKA3caZ3Ft2EnKoRNSa-5" value="Middle" style="rounded=0;whiteSpace=wrap;html=1;fontSize=24;fontFamily=Courier New;fillColor=#deddda;" vertex="1" parent="1">
          <mxGeometry x="680" y="360" width="120" height="40" as="geometry" />
        </mxCell>
        <mxCell id="PgKA3caZ3Ft2EnKoRNSa-12" value="" style="edgeStyle=orthogonalEdgeStyle;rounded=0;orthogonalLoop=1;jettySize=auto;html=1;" edge="1" parent="1" source="PgKA3caZ3Ft2EnKoRNSa-6" target="PgKA3caZ3Ft2EnKoRNSa-7">
          <mxGeometry relative="1" as="geometry" />
        </mxCell>
        <mxCell id="PgKA3caZ3Ft2EnKoRNSa-6" value="IR" style="rounded=0;whiteSpace=wrap;html=1;fontSize=24;fontFamily=Courier New;" vertex="1" parent="1">
          <mxGeometry x="840" y="360" width="40" height="40" as="geometry" />
        </mxCell>
        <mxCell id="PgKA3caZ3Ft2EnKoRNSa-13" value="" style="edgeStyle=orthogonalEdgeStyle;rounded=0;orthogonalLoop=1;jettySize=auto;html=1;" edge="1" parent="1" source="PgKA3caZ3Ft2EnKoRNSa-7" target="PgKA3caZ3Ft2EnKoRNSa-8">
          <mxGeometry relative="1" as="geometry" />
        </mxCell>
        <mxCell id="PgKA3caZ3Ft2EnKoRNSa-7" value="Back" style="rounded=0;whiteSpace=wrap;html=1;fontSize=24;fontFamily=Courier New;fillColor=#deddda;" vertex="1" parent="1">
          <mxGeometry x="920" y="360" width="120" height="40" as="geometry" />
        </mxCell>
        <mxCell id="PgKA3caZ3Ft2EnKoRNSa-8" value="Machine" style="rounded=0;whiteSpace=wrap;html=1;fontSize=24;fontFamily=Courier New;" vertex="1" parent="1">
          <mxGeometry x="1080" y="360" width="120" height="40" as="geometry" />
        </mxCell>
        <mxCell id="PgKA3caZ3Ft2EnKoRNSa-14" value="Errors" style="rounded=0;whiteSpace=wrap;html=1;fontSize=24;fontFamily=Courier New;" vertex="1" parent="1">
          <mxGeometry x="680" y="480" width="120" height="40" as="geometry" />
        </mxCell>
        <mxCell id="PgKA3caZ3Ft2EnKoRNSa-15" value="" style="endArrow=classic;html=1;rounded=0;exitX=0.5;exitY=1;exitDx=0;exitDy=0;entryX=0;entryY=0.5;entryDx=0;entryDy=0;" edge="1" parent="1" source="PgKA3caZ3Ft2EnKoRNSa-2" target="PgKA3caZ3Ft2EnKoRNSa-14">
          <mxGeometry width="50" height="50" relative="1" as="geometry">
            <mxPoint x="790" y="290" as="sourcePoint" />
            <mxPoint x="840" y="240" as="targetPoint" />
          </mxGeometry>
        </mxCell>
        <mxCell id="PgKA3caZ3Ft2EnKoRNSa-17" value="" style="endArrow=classic;html=1;rounded=0;exitX=0.5;exitY=1;exitDx=0;exitDy=0;entryX=1;entryY=0.5;entryDx=0;entryDy=0;" edge="1" parent="1" source="PgKA3caZ3Ft2EnKoRNSa-7" target="PgKA3caZ3Ft2EnKoRNSa-14">
          <mxGeometry width="50" height="50" relative="1" as="geometry">
            <mxPoint x="790" y="290" as="sourcePoint" />
            <mxPoint x="840" y="240" as="targetPoint" />
          </mxGeometry>
        </mxCell>
      </root>
    </mxGraphModel>
  </diagram>
</mxfile>
